<?xml version="1.0" encoding="UTF-8"?><svg id="_レイヤー_2" xmlns="http://www.w3.org/2000/svg" viewBox="0 0 224.99 45.44"><defs><style>.cls-1{fill:#dfb732;}.cls-2{fill:#61a694;}.cls-3{fill:#a787b3;}.cls-4{fill:#94c3e5;}.cls-5{fill:#cd7f40;}.cls-6{fill:#241d1b;}.cls-7{fill:#a1bd39;}.cls-8{fill:#c15e70;}</style></defs><g id="_レイヤー_1-2"><path class="cls-3" d="M3.89,19.8c.82.92,1.56,2.38,2.03,3.62.12-1.21.47-2.57,1.04-3.39.71-.99,2.07-1.1,2.41.13.85-.06,1.41,1.89,1.17,3.33-.19,1.18-.82,2.29-1.44,3.01.92.09,2.08.45,2.96,1.18,1.09.89,1.91,2.74,1.24,3.3.52,1.15-.56,2.06-1.71,1.83-.94-.18-2.07-.96-2.91-1.76.43,1.25.81,2.85.79,4.13-.04,1.54-.89,2.79-1.66,1.92-.54.79-1.76-.61-2.23-2.2-.38-1.29-.45-2.89-.36-4.09-.64.69-1.57,1.31-2.48,1.36-1.11.06-2.46-1.01-2.25-2.11-.85-.68-.53-2.43.33-3.19.7-.61,1.79-.83,2.69-.78-.83-.82-1.79-2.05-2.32-3.29-.65-1.51-.62-3.41.26-3.22.01-1.2,1.43-.89,2.43.23M5.94,26.35c-.45.18-.61.9-.37,1.59.26.7.83,1.11,1.28.93.45-.18.61-.9.37-1.61-.26-.69-.83-1.11-1.28-.92Z"/><path class="cls-8" d="M31.2,24.36c-1.38.44-3.19.41-4.62.16,1,.99,2.01,2.4,2.35,3.72.42,1.62-.41,3.46-1.75,3.08-.52,1.16-2.65.55-3.79-.75-.93-1.07-1.51-2.66-1.73-3.96-.69,1.13-1.81,2.4-3.07,3.07-1.54.81-3.76.61-3.81-.66-1.39-.13-1.48-2.14-.5-3.5.8-1.11,2.25-2.05,3.54-2.62-1.42-.28-3.12-.9-4.26-1.81-1.37-1.11-1.91-3.09-.61-3.49-.34-1.24,1.73-1.89,3.48-1.4,1.42.39,2.91,1.39,3.93,2.35-.18-1.31-.13-2.96.44-4.19.69-1.5,2.56-2.52,3.44-1.5,1.17-.65,2.55.99,2.65,2.63.09,1.35-.46,2.91-1.12,4.07,1.3-.53,3.06-.94,4.52-.78,1.8.18,3.5,1.53,2.74,2.56,1.07.84-.16,2.49-1.84,3.03M23.92,22.53c.14-.72-.41-1.43-1.2-1.58-.8-.15-1.56.32-1.69,1.04-.14.72.4,1.43,1.2,1.58.8.15,1.56-.32,1.69-1.04Z"/><path class="cls-7" d="M12.48,36.99c1.2-.32,2.81-.29,4.09-.12-.95-.7-1.94-1.69-2.32-2.63-.47-1.14.14-2.46,1.35-2.19.39-.83,2.32-.4,3.4.53.89.75,1.51,1.89,1.79,2.81.54-.81,1.45-1.71,2.53-2.18,1.31-.58,3.29-.44,3.41.46,1.24.09,1.44,1.52.66,2.48-.65.79-1.87,1.45-2.98,1.86,1.28.19,2.82.64,3.88,1.27,1.28.79,1.89,2.19.75,2.48.39.87-1.42,1.34-2.99,1-1.28-.27-2.66-.98-3.63-1.66.25.93.29,2.1-.14,2.97-.52,1.06-2.12,1.79-2.95,1.07-1,.46-2.33-.69-2.51-1.86-.16-.95.23-2.06.73-2.88-1.13.38-2.65.66-3.96.56-1.61-.13-3.2-1.08-2.57-1.81-1-.59-.01-1.76,1.44-2.14M19.04,38.27c-.08.52.44,1.01,1.16,1.12.72.11,1.37-.23,1.44-.74.08-.52-.44-1.01-1.16-1.12-.71-.11-1.36.23-1.43.74h-.01Z"/><path class="cls-5" d="M32.55,38.38c.25-1.25,1.01-2.74,1.78-3.83-1.11.55-2.52,1-3.6.94-1.31-.09-2.29-1.25-1.48-2.25-.61-.73.69-2.33,2.08-2.91,1.14-.48,2.51-.54,3.53-.38-.53-.87-.97-2.12-.93-3.34.05-1.48,1.1-3.24,2.01-2.95.66-1.11,2.13-.65,2.69.52.46.95.53,2.4.41,3.61.79-1.1,1.92-2.33,3.02-3.01,1.35-.83,2.98-.74,2.73.43,1.02.04.62,1.92-.42,3.23-.86,1.07-2.18,2.03-3.27,2.61,1,.19,2.15.69,2.79,1.49.78.97.74,2.78-.34,3.21-.02,1.14-1.75,1.83-2.95,1.48-.99-.29-1.89-1.15-2.43-1.99-.16,1.21-.59,2.76-1.29,3.92-.86,1.42-2.52,2.47-2.94,1.55-1.03.66-1.7-.8-1.4-2.32M36.81,32.88c.46.3,1.18.05,1.62-.56.43-.61.41-1.36-.05-1.67-.45-.3-1.17-.05-1.61.56-.43.61-.41,1.37.05,1.67h-.01Z"/><path class="cls-2" d="M41.69,20.62c-.97-.52-1.96-1.52-2.64-2.41.1,1.03,0,2.29-.43,3.15-.53,1.04-1.85,1.53-2.41.61-.83.31-1.72-1.15-1.75-2.43-.01-1.04.41-2.17.89-2.95-.92.2-2.13.24-3.15-.11-1.23-.42-2.37-1.72-1.8-2.39-.71-.82.18-1.89,1.36-2.04.97-.13,2.21.17,3.19.58-.66-.92-1.3-2.14-1.51-3.21-.24-1.3.39-2.6,1.3-2.09.39-.82,1.84-.02,2.59,1.16.61.96.96,2.27,1.08,3.31.51-.76,1.32-1.56,2.21-1.87,1.09-.39,2.61.11,2.61,1.09.96.31.95,1.87.24,2.77-.59.73-1.62,1.23-2.53,1.47.97.43,2.13,1.17,2.88,2.05.92,1.07,1.23,2.66.31,2.77.19,1.01-1.26,1.17-2.45.55M38.51,15.76c.41-.29.45-.94.08-1.45-.38-.51-1.01-.68-1.43-.39-.41.29-.45.94-.08,1.44.38.51,1.01.68,1.43.39h0Z"/><path class="cls-1" d="M31.59,7.61c-1.02.31-2.4.31-3.49.17.8.62,1.62,1.52,1.93,2.37.39,1.03-.16,2.25-1.18,2.01-.34.76-1.97.4-2.9-.43-.75-.68-1.26-1.7-1.49-2.54-.47.75-1.27,1.58-2.2,2.04-1.13.54-2.81.44-2.91-.38-1.06-.06-1.21-1.37-.53-2.26.55-.72,1.62-1.36,2.56-1.75-1.09-.16-2.4-.54-3.29-1.11-1.08-.7-1.58-1.97-.61-2.25-.31-.8,1.23-1.24,2.57-.96,1.1.23,2.26.85,3.07,1.47-.19-.85-.22-1.92.16-2.71.46-.98,1.83-1.67,2.53-1.02.86-.43,1.96.6,2.11,1.66.12.87-.23,1.9-.67,2.65.97-.36,2.27-.65,3.38-.57,1.37.1,2.71.94,2.17,1.62.85.53-.01,1.62-1.26,1.99M26.01,6.53c.08-.47-.37-.93-.97-1-.61-.09-1.16.23-1.24.7-.06.46.37.92.97,1,.61.09,1.17-.23,1.24-.7Z"/><path class="cls-4" d="M15.38,6.51c-.45.98-1.37,2.04-2.21,2.78,1.01-.22,2.25-.28,3.12.01,1.06.36,1.62,1.53.75,2.19.36.74-1.02,1.77-2.27,1.95-1.02.15-2.14-.11-2.94-.46.26.83.37,1.97.09,2.96-.33,1.21-1.54,2.43-2.23,1.99-.75.76-1.86.06-2.09-1.02-.18-.88.04-2.1.39-3.07-.85.73-2.03,1.5-3.06,1.82-1.26.39-2.57-.03-2.13-.96-.83-.26-.13-1.72.98-2.57.92-.7,2.18-1.2,3.19-1.43-.79-.38-1.63-1.04-1.98-1.83-.44-.97-.05-2.46.92-2.59.24-.94,1.78-1.13,2.69-.57.74.45,1.3,1.37,1.58,2.19.37-.97,1.02-2.14,1.83-2.95.99-.99,2.54-1.49,2.7-.65.97-.31,1.23,1.03.68,2.22M10.81,10.12c-.31-.36-.96-.3-1.42.12-.47.42-.6,1.03-.29,1.39.31.34.95.3,1.42-.12.47-.41.6-1.03.29-1.39Z"/><path class="cls-6" d="M163.31,32.57c-3.18-2.27-14.9-7.99-17.69-9.44-.23-.12-.23-.44,0-.55,2.79-1.41,14.52-7.23,17.45-9.48.81-.62.86-1.69.25-2.51-.62-.82-1.68-1.17-2.5-.55-2.5,1.92-13.05,7.54-16.89,9.54-1.44.74-2.27,1.93-2.27,3.25s.81,2.57,2.24,3.33c.14.08,13.93,7.51,17.28,9.9.32.23.84.28,1.21.24.56-.05,1.08-.39,1.44-.89.59-.83.33-2.24-.49-2.83"/><path class="cls-6" d="M58.85,10.23c-.95-.31-1.96.09-2.27,1.02-1.93,5.86-2.73,16.38-.64,23.16.24.78.95,1.15,1.71,1.15.17,0,.36-.02.53-.08.95-.29,1.59-1.18,1.3-2.13-1.97-6.4-1.42-15.14.51-20.97.31-.95-.2-1.84-1.14-2.15Z"/><path class="cls-6" d="M193.32,32.09h-10.37v-5.88h7.65c.91,0,1.54-.74,1.54-1.65s-.62-1.65-1.54-1.65h-7.65v-4.82h8.98c.93,0,1.51-.75,1.51-1.68s-.58-1.68-1.51-1.68h-8.98v-4.03c0-.99-.81-1.68-1.8-1.68s-1.8.69-1.8,1.68v4.03h-5.82c.35-1.06.68-2.09.96-2.99.28-.92-.17-1.78-1.09-2.06-.92-.28-1.83.12-2.11,1.03-.87,2.82-2.58,7.26-4.55,9.32-.67.69-.57,1.72.13,2.39.33.32.94.5,1.45.5.46,0,.95-.18,1.28-.55,1.03-1.09,1.9-2.62,2.64-4.28h7.1v4.82h-7.53c-.92,0-1.54.74-1.54,1.65s.62,1.65,1.54,1.65h7.53v5.88h-11.3c-.96,0-1.56.78-1.56,1.73s.6,1.73,1.56,1.73h25.27c.96,0,1.56-.78,1.56-1.73s-.6-1.73-1.56-1.73Z"/><path class="cls-6" d="M207.44,22.29h-8.06c-.96,0-1.73.78-1.73,1.73v9.76c0,.96.78,1.73,1.73,1.73h8.06c.96,0,1.73-.78,1.73-1.73v-9.76c0-.96-.78-1.73-1.73-1.73ZM205.57,25.19v7.33h-4.35v-7.33h4.35Z"/><path class="cls-6" d="M220.58,22.29h-8.06c-.96,0-1.73.78-1.73,1.73v10.46c0,.96.84,1.63,1.8,1.63s1.73-.66,1.8-1.63v-9.31h4.35v7.1h-1.36c-.96,0-1.68.67-1.68,1.63s.72,1.63,1.68,1.63h1.56c1.69,0,3.39-1.22,3.39-3.95v-7.55c0-.96-.78-1.73-1.73-1.73"/><path class="cls-6" d="M111.92,14.63c-1.73-1.27-4.03-2.04-6.17-2.56-.96-.24-1.94.24-2.16,1.21-.24.97.24,1.87,1.21,2.11,1.67.41,3.68,1.34,5.01,2.32.32.24.69.34,1.07.34.55,0,1.09-.39,1.43-.87.58-.8.43-1.96-.38-2.55"/><path class="cls-6" d="M138.89,12.8c-1.68.27-4.34.51-7.32.7-.46-1.09-.89-2.15-1.28-3.16-.35-.93-1.4-1.27-2.33-.92-.93.36-1.39,1.28-1.02,2.21.26.67.55,1.37.87,2.08-4.04.19-8.14.28-10.9.23h-.04c-.97,0-1.66.79-1.68,1.76-.02.99.65,1.81,1.64,1.83.57.01,1.2.02,1.86.02,3.07,0,7.03-.12,10.8-.32.89,1.75,1.87,3.51,2.85,5.17-4.43-.99-9.91-1.21-13.19.52-2.65,1.39-4.13,3.9-3.77,6.39.21,1.44,1.41,4.94,8.02,6.25,1.92.38,3.77.53,5.48.53,4.46,0,8.01-1.02,9.6-1.76.89-.42,1.17-1.49.75-2.38-.42-.9-1.37-1.41-2.27-.99-1.46.68-6.64,2.19-12.87.96-3.55-.7-5.12-2.13-5.28-3.23-.14-.97.39-2.13,1.93-2.85,3.39-1.57,10.06-1.1,14.96,1.49.76.4,1.7.2,2.24-.46.54-.67.52-1.64-.04-2.28-1.86-2.17-3.44-4.83-4.77-7.54,2.53-.18,4.77-.41,6.3-.65.98-.16,1.53-1.08,1.37-2.06s-.97-1.65-1.94-1.49"/><path class="cls-6" d="M99.83,16.69c.99-.08,1.67-.94,1.59-1.93-.08-.99-.88-1.73-1.87-1.65-1.25.1-2.92.19-4.7.29.12-.66.22-1.3.28-1.95.09-.99-.64-1.75-1.63-1.84-.99-.09-1.75.52-1.83,1.51-.08.81-.2,1.62-.38,2.42-1.73.05-3.41.1-4.8.1-.99,0-1.75.81-1.75,1.8s.75,1.8,1.75,1.8c1.1,0,2.39-.02,3.75-.06-1.41,3.86-3.61,7.44-5.75,10.18-.61.79-.47,1.8.31,2.4.33.26.72.38,1.1.38.54,0,1.07-.12,1.42-.57,2.33-2.98,5.05-7.65,6.61-12.53,2.23-.1,4.36-.23,5.89-.34Z"/><path class="cls-6" d="M77.15,25.73c-.19-2.9-.27-6.01-.28-8.65,1.41-.03,2.66-.08,3.61-.11.99-.04,1.7-.87,1.67-1.86-.04-.99-.82-1.76-1.81-1.72-.89.03-2.08.08-3.41.11.03-.89.08-1.61.13-2.09.11-.99-.6-1.76-1.59-1.86-.99-.11-1.87.48-1.98,1.48-.06.62-.12,1.51-.15,2.55-3.03.04-6.3.08-8.96.06-.99,0-1.73.8-1.75,1.79,0,.99.73,1.8,1.73,1.81h1.51c2.29,0,4.93-.02,7.43-.06,0,2.15.06,4.56.17,6.86-2.46-.75-5.58-.64-7.93.34-2.77,1.15-4.27,3.66-3.82,6.4.39,2.38,2.5,5.29,7.17,5.62.29.02.57.03.84.03,2.82,0,4.54-1.1,5.49-2.08,1.04-1.06,1.71-2.46,1.98-4.1.82.71,1.57,1.61,2.37,2.54.64.75,1.83.68,2.59.04.75-.64.85-1.66.22-2.41-1.66-1.96-3.41-3.52-5.21-4.66M72.66,31.69c-.75.76-1.94,1.1-3.52.98-2.59-.18-3.64-1.24-3.89-2.5-.2-1.06.42-2.12,1.59-2.7.97-.48,2.07-.62,3.1-.62,1.24,0,2.73.37,3.77,1.08.08,1.26-.06,2.76-1.06,3.77Z"/><path class="cls-6" d="M108.77,32.89c.65.75,1.83.68,2.59.04.75-.65.85-1.66.21-2.41-1.74-2.07-3.6-3.69-5.48-4.87M106.1,25.64c-.13-1.83-.17-4.01-.13-6.69.02-.99-.77-1.69-1.77-1.71h-.03c-.98,0-1.78.67-1.8,1.65-.03,1.91-.02,3.58.03,5.06-2.49-.73-5.54-.54-7.78.55-2.75,1.34-4.18,3.94-3.65,6.65.58,2.95,3.38,5,7.11,5.22.2.01.41.02.61.02,2.26,0,4.24-.78,5.61-2.22,1-1.06,1.64-2.43,1.9-4.02.88.75,1.7,1.71,2.56,2.74M101.72,31.59c-.96,1.01-2.37,1.14-3.39,1.09-2.49-.15-3.62-1.08-3.8-2.22-.17-1.07.38-2.29,1.64-2.9.95-.46,2.03-.68,3.06-.68,1.13,0,2.42.3,3.48.98.17,1.66-.17,2.87-.98,3.73Z"/><path class="cls-6" d="M224.19,18.82c-4.07-2.39-12.14-8.93-12.22-8.99-1.14-.93-2.85-.93-4,0-.07.06-8.15,6.6-12.22,8.99-.83.48-.99,1.55-.49,2.38.48.83,1.43,1.11,2.26.61,1.15-.68,2.56-1.64,4.04-2.69.09.79.61,1.39,1.43,1.39h13.95c.82,0,1.35-.6,1.43-1.39,1.46,1.06,2.89,2.01,4.04,2.69.28.16.58.24.88.24.59,0,1.11-.3,1.43-.86.48-.83.28-1.9-.55-2.38M204.08,17.27c2.29-1.72,4.4-3.39,5.43-4.21.27-.22.65-.22.91,0,1.03.83,3.12,2.49,5.42,4.22h-11.77,0Z"/></g></svg>